# xmcd CD database file
#
# Track frame offsets:
#	150
#	16687
#	32312
#	49648
#	68619
#	87730
#	103968
#	118653
#	138748
#	155397
#	175811
#	191358
#
# Disc length: 2770 seconds
#
# Revision: 2
# Processed by: cddbd v1.5.2PL0 Copyright (c) Steve Scherf et al.
# Submitted via: CDex 1.51
#
DISCID=970ad00c
DTITLE=¼ÒÈ÷ - BLUE
DYEAR=2006
DGENRE=°¡¿ä
TTITLE0=Po karekare Ana
TTITLE1=¾ÞµÎ
TTITLE2=´©±¸¿¡°Ô
TTITLE3=»ç¶÷ÀÇ ¸¾À» »ç·ÎÀ'Â ¹æ¹ý
TTITLE4=I Love You
TTITLE5=µÒµÒ
TTITLE6=Pretty world
TTITLE7=Blue
TTITLE8=Salut d`Amor
TTITLE9=Because of You
TTITLE10=¾ÞµÎ(Instrumental)
TTITLE11=Po karekare Ana(Instrumental)
EXTD=YEAR: 2006
EXTT0=
EXTT1=
EXTT2=
EXTT3=
EXTT4=
EXTT5=
EXTT6=
EXTT7=
EXTT8=
EXTT9=
EXTT10=
EXTT11=
PLAYORDER=
